<?xml version="1.0" standalone="no"?>
<!DOCTYPE svg PUBLIC "-//W3C//DTD SVG 20010904//EN"
 "http://www.w3.org/TR/2001/REC-SVG-20010904/DTD/svg10.dtd">
<svg version="1.0" xmlns="http://www.w3.org/2000/svg"
 width="900.000000pt" height="858.000000pt" viewBox="0 0 900.000000 858.000000"
 preserveAspectRatio="xMidYMid meet">
<metadata>
Created by potrace 1.10, written by Peter Selinger 2001-2011
</metadata>
<g transform="translate(0.000000,858.000000) scale(0.100000,-0.100000)"
fill="#fff9e4" stroke="none">
<path d="M4325 7557 c-116 -42 -202 -109 -261 -203 l-28 -43 -545 -3 -546 -3
-40 -27 c-22 -15 -360 -345 -750 -735 -533 -531 -716 -720 -733 -754 l-22 -47
2 -1518 3 -1519 27 -40 c46 -70 1438 -1450 1488 -1477 l45 -23 534 -2 534 -2
26 -38 c66 -96 166 -173 271 -208 103 -34 272 -20 365 30 122 65 218 177 245
287 6 21 15 57 21 81 6 23 8 69 5 101 -27 265 -233 456 -491 456 -65 0 -153
-19 -205 -43 -74 -35 -183 -129 -196 -169 -3 -10 -9 -18 -14 -18 -5 0 -12 -9
-15 -20 -6 -20 -12 -21 -478 -18 l-472 3 -623 623 c-342 343 -627 632 -632
642 -6 12 -10 245 -10 619 l0 600 22 12 c17 9 134 11 471 6 405 -5 451 -8 468
-23 10 -9 19 -24 19 -33 0 -27 79 -138 128 -181 53 -45 126 -85 186 -102 54
-15 219 -15 276 1 173 47 319 216 341 396 21 169 -16 287 -129 406 -97 103
-206 151 -347 153 -190 2 -360 -105 -447 -281 l-33 -68 -468 -3 -467 -2 -10
26 c-7 17 -9 241 -8 621 l3 595 632 629 c366 364 640 629 650 629 10 0 219 1
465 1 l448 2 50 -66 c46 -61 143 -147 166 -147 5 0 23 -7 39 -16 28 -16 64
-25 158 -40 22 -4 71 -1 110 6 161 30 285 121 365 270 29 54 55 183 48 244
-11 110 -63 228 -130 299 -47 51 -140 113 -182 123 -16 4 -35 12 -43 18 -8 6
-61 12 -120 13 -88 2 -116 -2 -166 -20z m253 -266 c182 -93 153 -355 -46 -415
-54 -17 -62 -17 -106 -2 -87 30 -122 60 -156 135 -46 102 0 227 106 284 42 23
155 22 202 -2z m-1226 -2848 c48 -26 115 -99 122 -135 9 -46 7 -123 -4 -152
-27 -73 -132 -146 -210 -146 -93 0 -203 90 -216 177 -16 108 22 193 108 243
63 36 145 41 200 13z m1183 -2842 c3 -5 18 -12 34 -16 63 -14 131 -117 131
-200 0 -198 -243 -299 -383 -159 -115 115 -74 299 83 367 39 17 126 22 135 8z"/>
<path d="M5855 7176 l-49 -43 39 -59 c22 -33 42 -61 46 -64 3 -3 16 -23 29
-45 13 -22 27 -42 30 -45 3 -3 24 -34 45 -70 21 -36 56 -90 76 -120 20 -30 47
-73 59 -95 23 -44 25 -46 71 -125 53 -90 202 -388 243 -485 20 -49 41 -99 47
-110 24 -52 112 -309 135 -395 63 -235 94 -388 114 -560 5 -47 14 -105 19
-130 21 -96 33 -583 21 -869 -6 -152 -15 -298 -21 -326 -5 -27 -14 -88 -19
-135 -15 -129 -35 -254 -43 -266 -3 -6 -11 -35 -16 -65 -9 -50 -22 -102 -52
-219 -6 -25 -15 -53 -20 -62 -5 -10 -13 -34 -18 -55 -10 -41 -27 -90 -48 -140
-7 -17 -13 -38 -13 -46 0 -9 -4 -18 -9 -21 -5 -3 -12 -18 -15 -33 -4 -16 -13
-41 -20 -58 -8 -16 -19 -41 -24 -55 -51 -121 -165 -353 -213 -435 -16 -27 -32
-57 -36 -65 -9 -22 -195 -334 -203 -340 -3 -3 -23 -33 -44 -68 -21 -34 -64
-101 -96 -148 -32 -47 -56 -91 -54 -97 8 -20 92 -77 112 -77 25 0 312 293 417
425 21 28 42 52 45 55 9 8 123 161 142 191 9 14 23 32 30 40 8 8 25 32 38 54
13 22 27 42 30 45 33 26 242 416 314 585 21 50 45 104 52 122 8 17 14 36 14
42 0 6 4 19 10 29 17 29 80 226 80 249 0 12 4 24 9 28 6 3 13 27 17 53 3 26
10 54 15 63 9 17 20 74 44 216 8 46 16 87 20 93 3 5 10 53 15 107 5 54 14 132
19 173 13 95 13 732 1 825 -5 39 -14 117 -20 174 -6 57 -13 107 -16 112 -3 5
-11 46 -19 92 -20 120 -33 183 -44 220 -16 55 -40 141 -46 167 -4 14 -10 34
-14 45 -5 11 -19 54 -31 95 -13 41 -27 79 -31 85 -5 5 -9 15 -9 23 0 13 -6 28
-47 122 -8 19 -21 49 -28 65 -62 142 -185 377 -246 469 -21 32 -39 60 -39 62
0 8 -158 233 -177 253 -8 8 -22 26 -31 40 -9 14 -25 35 -34 46 -9 11 -54 65
-100 120 -129 156 -357 385 -382 385 -12 0 -43 -20 -71 -44z"/>
</g>
</svg>
